<svg width="1119" height="937" xmlns="http://www.w3.org/2000/svg" xmlns:xlink="http://www.w3.org/1999/xlink" xml:space="preserve" overflow="hidden"><defs><clipPath id="clip0"><rect x="0" y="0" width="1119" height="937"/></clipPath><linearGradient x1="45.5" y1="-45.5001" x2="1073.5" y2="982.5" gradientUnits="userSpaceOnUse" spreadMethod="reflect" id="fill1"><stop offset="0" stop-color="#FFDB6E"/><stop offset="0.4" stop-color="#FFDB6E"/><stop offset="1" stop-color="#FFBC5E"/></linearGradient><linearGradient x1="45.5" y1="-45.5001" x2="1073.5" y2="982.5" gradientUnits="userSpaceOnUse" spreadMethod="reflect" id="fill2"><stop offset="0" stop-color="#FFDB6E"/><stop offset="0.4" stop-color="#FFDB6E"/><stop offset="1" stop-color="#FFBC5E"/></linearGradient></defs><g clip-path="url(#clip0)"><path d="M0 468.06C29.8124 427.052 74.8274 395.749 86.8624 354.762 145.764 154.162 355.743 3.69243 548.485 0.070332 742.943-3.58369 960.498 135.258 1021.55 330.64 1035.38 374.923 1081.78 409.031 1116.1 444.13 1119 511.544 1119 582.649 1119 658.995 1098.35 683.58 1079.93 706.328 1056.61 721.592 999.688 758.856 939.928 791.769 882.583 828.427 866.864 838.476 850.965 853.357 843.201 869.818 815.224 929.132 730.939 958.413 680.084 918.985 663.04 905.771 648.973 874.389 651.738 853.747 654.875 830.321 673.797 801.383 694.292 789.911 717.867 776.716 750.959 775.305 779.427 777.003 883.988 783.239 947.18 727.107 951.012 619.311 953.824 540.191 962.619 460.88 930.872 383.852 925.477 370.763 941.144 348.992 953.072 332.688 906.876 195.141 744.104 34.8414 506.551 60.2367 360.246 75.8769 197.757 200.225 156.093 337.642 171.74 369.457 192.89 392.462 187.913 405.472 143.832 520.695 159.806 634.048 189.678 748.12 192.37 758.398 190.036 769.992 190.036 783.664 122.36 795.146 70.2493 778.34 35.7922 717.358 27.9258 703.436 15.8773 691.876 2.8766 682.923 0 615.511 0 544.406 0 468.06Z" fill="url(#fill1)" fill-rule="evenodd"/><path d="M246 451.88C246 409.329 246 372.327 246 332 454.973 332 660.951 332 872.959 332 872.959 428.411 873.196 524.651 872.534 620.885 872.478 629.051 868.814 640.646 862.786 644.796 780.27 701.613 695.731 754.048 574.079 755 588.884 714.483 600.925 681.53 614.618 644.057 493.253 644.057 373.255 644.057 246 644.057 246 578.815 246 518.123 246 451.88M388.871 430.072C382.326 444.299 369.373 459.157 370.7 472.61 372.823 494.112 380.527 517.865 393.857 534.149 399.552 541.107 434.04 537.501 440.138 528.432 451.943 510.875 463.002 481.36 455.624 465.496 447.622 448.29 418.262 440.99 388.871 430.072M707.995 429.329C677.353 423.091 660.485 441.681 662.148 466.686 663.765 490.997 675.994 516.028 689.418 537.006 692.318 541.538 730.069 534.72 734.595 525.085 744.378 504.258 745.847 478.088 744.753 454.378 744.357 445.773 726.966 437.949 707.995 429.329Z" fill="url(#fill2)" fill-rule="evenodd"/></g></svg>