<svg width="912" height="697" xmlns="http://www.w3.org/2000/svg" xmlns:xlink="http://www.w3.org/1999/xlink" xml:space="preserve" overflow="hidden"><defs><clipPath id="clip0"><rect x="0" y="0" width="912" height="697"/></clipPath><linearGradient x1="53.75" y1="-53.75" x2="858.25" y2="750.75" gradientUnits="userSpaceOnUse" spreadMethod="reflect" id="fill1"><stop offset="0" stop-color="#FFDB6E"/><stop offset="0.43103" stop-color="#FFDB6E"/><stop offset="1" stop-color="#FFBC5E"/></linearGradient></defs><g clip-path="url(#clip0)"><path d="M0 697 0 619.556 101.333 542.111 101.333 697 0 697ZM202.667 697 202.667 464.667 304 387.222 304 697 202.667 697ZM405.333 697 405.333 387.222 506.667 465.635 506.667 697 405.333 697ZM608 697 608 465.635 709.333 388.19 709.333 697 608 697ZM810.667 697 810.667 309.778 912 232.334 912 697 810.667 697ZM0 496.613 0 387.222 354.667 116.167 557.333 271.056 912 0 912 109.39 557.333 380.446 354.667 225.557 0 496.613Z" fill="url(#fill1)" fill-rule="evenodd"/></g></svg>