<svg width="315" height="316" xmlns="http://www.w3.org/2000/svg" xmlns:xlink="http://www.w3.org/1999/xlink" xml:space="preserve" overflow="hidden"><defs><clipPath id="clip0"><rect x="0" y="0" width="315" height="316"/></clipPath><linearGradient x1="-0.250009" y1="0.249794" x2="315.25" y2="315.75" gradientUnits="userSpaceOnUse" spreadMethod="reflect" id="fill1"><stop offset="0" stop-color="#FFDB6E"/><stop offset="0.4" stop-color="#FFDB6E"/><stop offset="1" stop-color="#FFBC5E"/></linearGradient><linearGradient x1="-0.250015" y1="0.249817" x2="315.25" y2="315.75" gradientUnits="userSpaceOnUse" spreadMethod="reflect" id="fill2"><stop offset="0" stop-color="#FFDB6E"/><stop offset="0.4" stop-color="#FFDB6E"/><stop offset="1" stop-color="#FFBC5E"/></linearGradient><linearGradient x1="-0.250015" y1="0.249802" x2="315.25" y2="315.75" gradientUnits="userSpaceOnUse" spreadMethod="reflect" id="fill3"><stop offset="0" stop-color="#FFDB6E"/><stop offset="0.4" stop-color="#FFDB6E"/><stop offset="1" stop-color="#FFBC5E"/></linearGradient><linearGradient x1="-0.25" y1="0.249786" x2="315.25" y2="315.75" gradientUnits="userSpaceOnUse" spreadMethod="reflect" id="fill4"><stop offset="0" stop-color="#FFDB6E"/><stop offset="0.4" stop-color="#FFDB6E"/><stop offset="1" stop-color="#FFBC5E"/></linearGradient><linearGradient x1="-0.25001" y1="0.249794" x2="315.25" y2="315.75" gradientUnits="userSpaceOnUse" spreadMethod="reflect" id="fill5"><stop offset="0" stop-color="#FFDB6E"/><stop offset="0.4" stop-color="#FFDB6E"/><stop offset="1" stop-color="#FFBC5E"/></linearGradient><linearGradient x1="-0.25" y1="0.249794" x2="315.25" y2="315.75" gradientUnits="userSpaceOnUse" spreadMethod="reflect" id="fill6"><stop offset="0" stop-color="#FFDB6E"/><stop offset="0.4" stop-color="#FFDB6E"/><stop offset="1" stop-color="#FFBC5E"/></linearGradient><linearGradient x1="-0.250015" y1="0.249794" x2="315.25" y2="315.75" gradientUnits="userSpaceOnUse" spreadMethod="reflect" id="fill7"><stop offset="0" stop-color="#FFDB6E"/><stop offset="0.4" stop-color="#FFDB6E"/><stop offset="1" stop-color="#FFBC5E"/></linearGradient><linearGradient x1="-0.250008" y1="0.249802" x2="315.25" y2="315.75" gradientUnits="userSpaceOnUse" spreadMethod="reflect" id="fill8"><stop offset="0" stop-color="#FFDB6E"/><stop offset="0.4" stop-color="#FFDB6E"/><stop offset="1" stop-color="#FFBC5E"/></linearGradient><linearGradient x1="-0.250008" y1="0.249802" x2="315.25" y2="315.75" gradientUnits="userSpaceOnUse" spreadMethod="reflect" id="fill9"><stop offset="0" stop-color="#FFDB6E"/><stop offset="0.4" stop-color="#FFDB6E"/><stop offset="1" stop-color="#FFBC5E"/></linearGradient><linearGradient x1="-0.250015" y1="0.249802" x2="315.25" y2="315.75" gradientUnits="userSpaceOnUse" spreadMethod="reflect" id="fill10"><stop offset="0" stop-color="#FFDB6E"/><stop offset="0.4" stop-color="#FFDB6E"/><stop offset="1" stop-color="#FFBC5E"/></linearGradient><linearGradient x1="-0.250015" y1="0.249802" x2="315.25" y2="315.75" gradientUnits="userSpaceOnUse" spreadMethod="reflect" id="fill11"><stop offset="0" stop-color="#FFDB6E"/><stop offset="0.4" stop-color="#FFDB6E"/><stop offset="1" stop-color="#FFBC5E"/></linearGradient><linearGradient x1="-0.250015" y1="0.249802" x2="315.25" y2="315.75" gradientUnits="userSpaceOnUse" spreadMethod="reflect" id="fill12"><stop offset="0" stop-color="#FFDB6E"/><stop offset="0.4" stop-color="#FFDB6E"/><stop offset="1" stop-color="#FFBC5E"/></linearGradient><linearGradient x1="-0.25" y1="0.249802" x2="315.25" y2="315.75" gradientUnits="userSpaceOnUse" spreadMethod="reflect" id="fill13"><stop offset="0" stop-color="#FFDB6E"/><stop offset="0.4" stop-color="#FFDB6E"/><stop offset="1" stop-color="#FFBC5E"/></linearGradient></defs><g clip-path="url(#clip0)"><path d="M0.159301 175.694C0.160022 129.919 0.455557 85.8595 0.00324368 41.8081-0.156778 26.2089 5.44074 16.033 20.9935 12.129 64.9576 1.09345 109.248-3.9321 154.443 3.56545 172.036 6.48421 190.004 7.39867 207.421 11.0464 221.532 14.0012 230.992 21.759 230.47 39.1391 229.44 73.4158 230.166 107.746 230.166 143.311 256.75 147.811 280.434 157.415 297.763 179.593 335.731 228.182 306.908 301.141 250.932 313.493 219.98 320.322 194.648 313.028 170.06 293.719 162.666 287.913 148.707 289.727 137.717 289.425 110.862 288.687 83.9245 289.729 57.1422 288.073 44.1638 287.271 31.4691 281.979 18.6288 278.789 5.09078 275.426-0.176961 266.629 0.0562238 252.935 0.48439 227.768 0.166509 202.588 0.159301 175.694M217.447 284.468C231.247 292.226 236.656 291.066 237.422 279.933 238.156 279.307 238.425 279.076 240.93 282.099 247.526 279.85 254.096 277.518 260.725 275.374 267.637 273.139 279.03 272.702 280.531 268.582 282.878 262.14 278.547 253.258 275.766 243.801 274.015 241.024 272.263 238.248 269.116 233.745 269.958 230.52 270.801 227.295 273.581 223.316 274.691 220.879 275.801 218.442 278.832 214.34 284.18 204.167 288.911 192.242 275.066 186.904 264.121 182.684 251.069 183.941 239.242 182.988 239.242 182.988 240.189 184.037 243.132 181.357 230.476 167.597 222.027 169.176 211.414 184.171 198.71 186.783 189.15 188.748 177.717 192.387 170.426 205.349 181.109 213.124 188.237 224.845 187.446 229.523 186.655 234.201 186.184 238.91 186.184 238.91 185.494 239.02 183.751 241.086 181.018 246.545 176.988 251.793 176.057 257.545 175.53 260.8 180.095 264.88 182.02 268.342 182.02 268.342 181.711 268.049 179.473 270.453 189.004 272.479 198.535 274.504 208.066 276.53 208.096 275.776 208.125 275.022 208.154 274.268 212.244 277.06 216.332 279.851 220.061 282.347 220.061 282.347 219.77 281.981 217.447 284.468M121.958 124.134C149.701 120.758 177.48 117.643 205.145 113.718 209.162 113.149 215.711 108.86 215.854 106.028 216.81 87.0035 216.352 67.9074 216.352 48.9297 147.217 63.0486 80.6787 64.2189 13.8949 48.1877 13.8949 62.9988 15.2558 78.6124 13.5193 93.8727 11.7133 109.748 19.5789 115.737 32.745 117.043 61.3074 119.877 89.9574 121.825 121.958 124.134M13.8995 131.58C13.8995 150.387 13.8995 169.193 13.8995 192.671 52.0525 196.212 89.6186 200.443 127.302 202.776 139.872 203.555 154.13 201.611 155.853 188.544 148.525 182.336 143.008 177.662 137.491 172.989 141.501 168.337 146.424 159.338 149.328 159.95 155.167 161.18 159.904 167.65 163.921 170.984 179.63 162.504 196.831 153.219 215.604 143.085 215.604 140.516 215.604 134.469 215.604 128.105 189.418 131.436 164.092 137.168 138.742 137.272 103.923 137.414 69.0814 133.347 34.2583 130.951 27.4682 130.483 20.7199 129.404 13.8995 131.58M148.653 275.41C150.569 273.987 154.341 272.137 154.127 271.204 149.819 252.452 145.053 233.805 140.477 215.529 99.9018 213.041 57.3617 210.432 13.8945 207.767 13.8945 218.361 14.7584 232.693 13.6451 246.868 12.5851 260.368 17.9592 266.668 30.8608 268.586 51.7757 271.695 72.5014 276.833 93.5057 278.347 110.761 279.592 128.305 276.815 148.653 275.41Z" fill="url(#fill1)" fill-rule="evenodd"/><path d="M186.012 239C191.44 241.012 199.684 241.532 201.979 245.43 205.219 250.931 204.058 258.932 205 268 198.758 268 191.75 268 183.219 267.802 181.698 267.603 182.007 267.891 182.064 266.49 183.242 256.433 184.362 247.778 185.483 239.123 185.483 239.123 186.172 239.015 186.012 239Z" fill="url(#fill2)" fill-rule="evenodd"/><path d="M237.168 179.508C238.013 182.448 239.007 185.496 240 188.543 233.357 189.848 226.735 191.811 220.057 192 218.361 192.049 214.231 184.943 215.125 183.745 217.628 180.389 221.862 177.545 226.025 176.189 228.645 175.337 232.365 177.525 236.94 179.493 238.288 180.636 237.317 179.616 237.168 179.508Z" fill="url(#fill3)" fill-rule="evenodd"/><path d="M220.226 282C219.941 277.177 219.47 272.207 219 267.237 225.408 267.189 231.903 266.588 238.16 267.511 239.591 267.722 240.202 273.191 239.942 277.496 238.893 278.589 238.617 278.819 236.431 280.49 229.913 281.52 224.828 281.504 219.742 281.488 219.742 281.488 220.04 281.852 220.226 282Z" fill="url(#fill4)" fill-rule="evenodd"/><path d="M58.5564 100.261C48.481 98.9536 39.9434 97.6559 31.4054 96.3582 30.9369 94.2539 30.4684 92.1496 29.9999 90.0452 34.344 88.618 38.7558 85.8024 43.0197 86.0107 59.1367 86.799 75.2264 88.3719 91.2805 90.0805 96.6843 90.6554 101.952 92.5075 107 96.0509 91.7692 107.635 75.9545 104.25 58.5564 100.261Z" fill="url(#fill5)" fill-rule="evenodd"/><path d="M141 90.189C147.726 87.3054 154.391 84.9586 161.039 85.0006 162.534 85.0099 165.443 93.5251 164.943 97.8246 164.582 100.938 157.467 106.265 157.105 105.99 151.357 101.63 146.214 96.5245 141 90.189Z" fill="url(#fill6)" fill-rule="evenodd"/><path d="M196.853 105C189.911 103.586 183.058 102.164 178.42 98.2813 176.846 96.964 180.031 86.0142 182.497 85.4571 187.721 84.2768 195.619 85.3853 199.103 88.7492 201.529 91.0916 198.437 98.7472 196.853 105Z" fill="url(#fill7)" fill-rule="evenodd"/><path d="M52.1702 178.993C43.5178 177.465 36.4228 175.944 28.2499 174.192 25.6113 166.483 26.4405 160.884 37.7521 162.189 56.7686 164.382 75.8093 166.439 94.7379 169.215 97.7647 169.659 100.259 173.543 103 175.836 100.116 177.999 97.1734 182.079 94.3558 181.999 80.7945 181.615 67.2667 180.108 52.1702 178.993Z" fill="url(#fill8)" fill-rule="evenodd"/><path d="M64.5233 237.332C73.1754 238.539 80.3098 239.511 87.3741 240.883 92.7549 241.928 98.0465 243.479 103 247.96 79.378 260.61 56.1491 249.84 33.0233 247.444 30.5822 247.19 28.7465 240.529 25.0001 234 40.1628 235.306 51.569 236.288 64.5233 237.332Z" fill="url(#fill9)" fill-rule="evenodd"/><path d="M219.138 212.809C230.955 202.674 239.71 210.691 245.538 217.362 249.862 222.311 252.651 233.212 249.911 238.231 246.147 245.129 235.839 253.783 229.561 252.944 221.2 251.825 211.646 243.698 206.92 236.043 200.757 226.062 210.671 219.49 219.138 212.809Z" fill="url(#fill10)" fill-rule="evenodd"/><path d="M274.94 211.839C273.342 215.372 271.903 217.534 269.796 220.511 265.361 221.005 258.605 221.406 258.306 220.248 256.176 211.978 255.363 203.39 254 194 262.196 194 269.455 194 279 194 277.644 199.729 276.372 205.099 274.94 211.839Z" fill="url(#fill11)" fill-rule="evenodd"/><path d="M190.23 220C186.665 211.552 184.273 203.609 182 194.333 189.952 193 197.784 193 206 193 204.679 201.779 204.355 209.433 201.993 216.436 201.236 218.679 195.086 219.197 190.23 220Z" fill="url(#fill12)" fill-rule="evenodd"/><path d="M266.357 238C269.328 241.26 270.892 244.405 273.475 247.957 275.917 254.563 277.34 260.763 279 268 270.34 268 263.323 268 251 268 256.274 256.615 260.612 247.25 266.357 238Z" fill="url(#fill13)" fill-rule="evenodd"/></g></svg>